<svg width="258" height="50" viewBox="0 0 258 50" fill="none" xmlns="http://www.w3.org/2000/svg">
<path d="M196.586 38.224C195.029 38.224 193.642 37.9146 192.426 37.296C191.231 36.6773 190.303 35.8026 189.642 34.672C188.981 33.5413 188.65 32.2186 188.65 30.704C188.65 28.656 189.13 26.8 190.09 25.136C191.071 23.472 192.415 22.1706 194.122 21.232C195.829 20.2933 197.738 19.824 199.85 19.824C201.407 19.824 202.783 20.1333 203.978 20.752C205.194 21.3706 206.133 22.256 206.794 23.408C207.477 24.5386 207.818 25.8613 207.818 27.376C207.818 29.4453 207.327 31.312 206.346 32.976C205.365 34.6186 204.021 35.9093 202.314 36.848C200.607 37.7653 198.698 38.224 196.586 38.224ZM197.546 32.816C198.293 32.816 198.954 32.5813 199.53 32.112C200.127 31.6426 200.575 31.0346 200.874 30.288C201.194 29.5413 201.354 28.7733 201.354 27.984C201.354 27.088 201.119 26.4053 200.65 25.936C200.202 25.4666 199.615 25.232 198.89 25.232C198.122 25.232 197.45 25.4666 196.874 25.936C196.319 26.4053 195.882 27.0133 195.562 27.76C195.263 28.5066 195.114 29.2853 195.114 30.096C195.114 30.992 195.338 31.6746 195.786 32.144C196.234 32.592 196.821 32.816 197.546 32.816Z" fill="#3A7F5F"/>
<path d="M175.49 20.048L177.442 30.224L182.882 20.048H189.762L173.73 46.544H166.914L172.834 37.232L168.514 20.048H175.49Z" fill="#3A7F5F"/>
<path d="M164.078 18.384C163.096 18.384 162.318 18.1387 161.742 17.648C161.187 17.1574 160.91 16.528 160.91 15.76C160.91 15.0774 161.091 14.448 161.454 13.872C161.838 13.2747 162.35 12.8054 162.99 12.464C163.651 12.1014 164.387 11.92 165.198 11.92C166.179 11.92 166.947 12.176 167.502 12.688C168.078 13.1787 168.366 13.8187 168.366 14.608C168.366 15.2907 168.174 15.92 167.79 16.496C167.427 17.072 166.915 17.5307 166.254 17.872C165.592 18.2134 164.867 18.384 164.078 18.384ZM166.894 20.048L163.726 38H157.422L160.622 20.048H166.894Z" fill="#3A7F5F"/>
<path d="M152.005 23.3119C152.88 22.2666 153.872 21.4346 154.981 20.8159C156.09 20.1973 157.221 19.8879 158.373 19.8879L157.221 26.5759H155.461C154.138 26.5759 153.104 26.8213 152.357 27.3119C151.61 27.8026 151.109 28.6559 150.853 29.8719L149.413 37.9999H143.109L146.309 20.0479H152.581L152.005 23.3119Z" fill="#3A7F5F"/>
<path d="M121.935 29.008C122.276 27.152 122.906 25.5306 123.823 24.144C124.74 22.7573 125.839 21.6906 127.119 20.944C128.42 20.1973 129.786 19.824 131.215 19.824C132.453 19.824 133.476 20.0693 134.287 20.56C135.098 21.0506 135.663 21.712 135.983 22.544L136.431 20.048H142.703L139.535 38H133.263L133.711 35.504C133.092 36.336 132.282 36.9973 131.279 37.488C130.276 37.9786 129.167 38.224 127.951 38.224C126.074 38.224 124.57 37.6053 123.439 36.368C122.308 35.1093 121.743 33.4026 121.743 31.248C121.743 30.544 121.807 29.7973 121.935 29.008ZM134.863 29.008C134.927 28.688 134.959 28.3893 134.959 28.112C134.959 27.216 134.703 26.5226 134.191 26.032C133.701 25.5413 133.061 25.296 132.271 25.296C131.333 25.296 130.49 25.6266 129.743 26.288C128.997 26.928 128.527 27.8346 128.335 29.008C128.271 29.328 128.239 29.6373 128.239 29.936C128.239 30.832 128.484 31.5253 128.975 32.016C129.487 32.5066 130.138 32.752 130.927 32.752C131.866 32.752 132.708 32.4213 133.455 31.76C134.202 31.0986 134.671 30.1813 134.863 29.008Z" fill="#3A7F5F"/>
<path d="M121.77 15.4399L117.802 37.9999H111.498L113.098 28.9439H105.482L103.882 37.9999H97.5779L101.578 15.4399H107.85L106.346 23.9519H113.994L115.498 15.4399H121.77Z" fill="#3A7F5F"/>
<path d="M79.1487 38.224C77.5913 38.224 76.2046 37.9146 74.9886 37.296C73.794 36.6773 72.866 35.8026 72.2047 34.672C71.5433 33.5413 71.2126 32.2186 71.2126 30.704C71.2126 28.656 71.6926 26.8 72.6526 25.136C73.634 23.472 74.978 22.1706 76.6847 21.232C78.3913 20.2933 80.3007 19.824 82.4127 19.824C83.97 19.824 85.346 20.1333 86.5406 20.752C87.7566 21.3706 88.6953 22.256 89.3567 23.408C90.0393 24.5386 90.3807 25.8613 90.3807 27.376C90.3807 29.4453 89.89 31.312 88.9087 32.976C87.9273 34.6186 86.5833 35.9093 84.8766 36.848C83.17 37.7653 81.2607 38.224 79.1487 38.224ZM80.1087 32.816C80.8553 32.816 81.5167 32.5813 82.0927 32.112C82.69 31.6426 83.138 31.0346 83.4367 30.288C83.7567 29.5413 83.9166 28.7733 83.9166 27.984C83.9166 27.088 83.682 26.4053 83.2127 25.936C82.7647 25.4666 82.178 25.232 81.4527 25.232C80.6847 25.232 80.0127 25.4666 79.4367 25.936C78.882 26.4053 78.4446 27.0133 78.1246 27.76C77.826 28.5066 77.6767 29.2853 77.6767 30.096C77.6767 30.992 77.9006 31.6746 78.3486 32.144C78.7966 32.592 79.3833 32.816 80.1087 32.816Z" fill="#3A7F5F"/>
<path d="M71.4489 14.3199L67.2569 37.9999H60.9529L65.1449 14.3199H71.4489Z" fill="#3A7F5F"/>
<path d="M57.7651 18.384C56.7838 18.384 56.0051 18.1387 55.4291 17.648C54.8745 17.1574 54.5971 16.528 54.5971 15.76C54.5971 15.0774 54.7785 14.448 55.1411 13.872C55.5251 13.2747 56.0371 12.8054 56.6771 12.464C57.3385 12.1014 58.0745 11.92 58.8851 11.92C59.8665 11.92 60.6345 12.176 61.1891 12.688C61.7651 13.1787 62.0531 13.8187 62.0531 14.608C62.0531 15.2907 61.8611 15.92 61.4771 16.496C61.1145 17.072 60.6025 17.5307 59.9411 17.872C59.2798 18.2134 58.5545 18.384 57.7651 18.384ZM60.5811 20.048L57.4131 38H51.1091L54.3091 20.048H60.5811Z" fill="#3A7F5F"/>
<path d="M47.9208 18.384C46.9395 18.384 46.1608 18.1387 45.5848 17.648C45.0088 17.1574 44.7208 16.5174 44.7208 15.728C44.7208 15.0454 44.9021 14.416 45.2648 13.84C45.6488 13.2427 46.1715 12.7734 46.8328 12.432C47.4941 12.0907 48.2301 11.92 49.0408 11.92C50.0008 11.92 50.7581 12.176 51.3128 12.688C51.8888 13.1787 52.1768 13.8187 52.1768 14.608C52.1768 15.2907 51.9848 15.92 51.6008 16.496C51.2381 17.072 50.7261 17.5307 50.0648 17.872C49.4248 18.2134 48.7101 18.384 47.9208 18.384ZM47.2808 39.76C46.5128 44.304 43.8355 46.576 39.2488 46.576H36.9768L37.9048 41.232H39.2488C39.7821 41.232 40.1875 41.1254 40.4648 40.912C40.7208 40.6987 40.9021 40.3467 41.0088 39.856L44.4968 20.048H50.7688L47.2808 39.76Z" fill="#3A7F5F"/>
<path d="M20.1227 29.008C20.464 27.152 21.0933 25.5306 22.0107 24.144C22.928 22.7573 24.0267 21.6906 25.3067 20.944C26.608 20.1973 27.9733 19.824 29.4027 19.824C30.64 19.824 31.664 20.0693 32.4747 20.56C33.2853 21.0506 33.8507 21.712 34.1707 22.544L34.6187 20.048H40.8907L37.7227 38H31.4507L31.8987 35.504C31.28 36.336 30.4693 36.9973 29.4667 37.488C28.464 37.9786 27.3547 38.224 26.1387 38.224C24.2613 38.224 22.7573 37.6053 21.6267 36.368C20.496 35.1093 19.9307 33.4026 19.9307 31.248C19.9307 30.544 19.9947 29.7973 20.1227 29.008ZM33.0507 29.008C33.1147 28.688 33.1467 28.3893 33.1467 28.112C33.1467 27.216 32.8907 26.5226 32.3787 26.032C31.888 25.5413 31.248 25.296 30.4587 25.296C29.52 25.296 28.6773 25.6266 27.9307 26.288C27.184 26.928 26.7147 27.8346 26.5227 29.008C26.4587 29.328 26.4267 29.6373 26.4267 29.936C26.4267 30.832 26.672 31.5253 27.1627 32.016C27.6747 32.5066 28.3253 32.752 29.1147 32.752C30.0533 32.752 30.896 32.4213 31.6427 31.76C32.3893 31.0986 32.8587 30.1813 33.0507 29.008Z" fill="#3A7F5F"/>
<path d="M8.672 38.224C6.06933 38.224 3.968 37.6907 2.368 36.624C0.789333 35.536 0 33.9573 0 31.888C0 31.7173 0.0213333 31.4187 0.064 30.992H6.688C6.624 31.7173 6.77333 32.2827 7.136 32.688C7.49867 33.0933 8.05333 33.296 8.8 33.296C9.41867 33.296 9.90933 33.1573 10.272 32.88C10.656 32.6027 10.848 32.208 10.848 31.696C10.848 31.0987 10.5707 30.608 10.016 30.224C9.48267 29.84 8.608 29.392 7.392 28.88C6.176 28.368 5.17333 27.888 4.384 27.44C3.59467 26.9707 2.912 26.3413 2.336 25.552C1.76 24.7413 1.472 23.7387 1.472 22.544C1.472 20.9867 1.856 19.6533 2.624 18.544C3.392 17.4133 4.45867 16.56 5.824 15.984C7.21067 15.3867 8.78933 15.088 10.56 15.088C12.16 15.088 13.5787 15.344 14.816 15.856C16.0533 16.3467 17.0133 17.0613 17.696 18C18.4 18.9387 18.752 20.048 18.752 21.328C18.752 21.6693 18.7413 21.9253 18.72 22.096H11.968C11.9893 21.9893 12 21.84 12 21.648C12 21.136 11.84 20.7413 11.52 20.464C11.2 20.1653 10.7627 20.016 10.208 20.016C9.632 20.016 9.16267 20.1653 8.8 20.464C8.45867 20.7413 8.288 21.136 8.288 21.648C8.288 22.2027 8.55467 22.6827 9.088 23.088C9.64267 23.472 10.496 23.9307 11.648 24.464C12.8853 25.04 13.8987 25.584 14.688 26.096C15.4987 26.5867 16.192 27.248 16.768 28.08C17.344 28.912 17.632 29.936 17.632 31.152C17.632 32.496 17.2693 33.712 16.544 34.8C15.8187 35.8667 14.784 36.7093 13.44 37.328C12.096 37.9253 10.5067 38.224 8.672 38.224Z" fill="#3A7F5F"/>
<path d="M229.421 4C232.615 4 235.44 5.50163 237.156 7.80232C235.869 9.41301 235.105 11.4218 235.105 13.6V14.8H234.474C229.242 14.8 225 10.7706 225 5.8V4H229.421Z" fill="#227850"/>
<path d="M245.211 17.2V25.5999C245.211 26.9255 244.08 28 242.684 28H232.579C231.184 28 230.053 26.9255 230.053 25.5999V17.2H236.368H238.895H245.211Z" fill="#E07A5F"/>
<path d="M245.211 5.19995H249V7.59995C249 12.2391 245.041 16 240.158 16H238.895V17.2H236.368V13.6C236.368 8.96076 240.327 5.19995 245.211 5.19995Z" fill="#227850"/>
<path d="M244.432 42.6C242.379 42.6 240.732 44.2465 240.732 46.3C240.732 47.2813 241.122 48.2224 241.816 48.9163C242.51 49.6102 243.451 50 244.432 50C245.413 50 246.354 49.6102 247.048 48.9163C247.742 48.2224 248.132 47.2813 248.132 46.3C248.132 44.2465 246.467 42.6 244.432 42.6ZM214.832 13V16.7H218.532L225.192 30.7415L222.676 35.274C222.399 35.792 222.232 36.4025 222.232 37.05C222.232 38.0313 222.622 38.9724 223.316 39.6663C224.01 40.3602 224.951 40.75 225.932 40.75H248.132V37.05H226.709C226.586 37.05 226.469 37.0013 226.382 36.9145C226.295 36.8278 226.247 36.7102 226.247 36.5875C226.247 36.495 226.265 36.421 226.302 36.3655L227.967 33.35H241.75C243.137 33.35 244.358 32.573 244.987 31.4445L251.61 19.475C251.74 19.179 251.832 18.8645 251.832 18.55C251.832 18.0593 251.637 17.5888 251.29 17.2419C250.943 16.8949 250.473 16.7 249.982 16.7H222.621L220.882 13M225.932 42.6C223.879 42.6 222.232 44.2465 222.232 46.3C222.232 47.2813 222.622 48.2224 223.316 48.9163C224.01 49.6102 224.951 50 225.932 50C226.913 50 227.854 49.6102 228.548 48.9163C229.242 48.2224 229.632 47.2813 229.632 46.3C229.632 44.2465 227.967 42.6 225.932 42.6Z" fill="#3A7F5F"/>
</svg>
